<svg width="89" height="45" viewBox="0 0 89 45" fill="none" xmlns="http://www.w3.org/2000/svg">
<g clip-path="url(#clip0)">
<path d="M15.9614 0.389243C8.19576 1.90487 1.93795 8.14706 0.4067 15.8892C-2.48392 30.4986 10.6958 41.3892 20.6255 39.8502C23.8442 39.3502 25.4223 35.5846 23.9458 32.6861C22.1411 29.1392 24.7192 24.9986 28.7036 24.9986H34.9301C37.727 24.9986 39.9926 22.6861 40.0005 19.8971C39.9614 7.58456 28.7583 -2.10294 15.9614 0.389243ZM7.50045 24.9986C6.11764 24.9986 5.00045 23.8814 5.00045 22.4986C5.00045 21.1158 6.11764 19.9986 7.50045 19.9986C8.88326 19.9986 10.0005 21.1158 10.0005 22.4986C10.0005 23.8814 8.88326 24.9986 7.50045 24.9986ZM10.0005 14.9986C8.61764 14.9986 7.50045 13.8814 7.50045 12.4986C7.50045 11.1158 8.61764 9.99862 10.0005 9.99862C11.3833 9.99862 12.5005 11.1158 12.5005 12.4986C12.5005 13.8814 11.3833 14.9986 10.0005 14.9986ZM20.0005 9.99862C18.6176 9.99862 17.5005 8.88143 17.5005 7.49862C17.5005 6.11581 18.6176 4.99862 20.0005 4.99862C21.3833 4.99862 22.5005 6.11581 22.5005 7.49862C22.5005 8.88143 21.3833 9.99862 20.0005 9.99862ZM30.0005 14.9986C28.6176 14.9986 27.5005 13.8814 27.5005 12.4986C27.5005 11.1158 28.6176 9.99862 30.0005 9.99862C31.3833 9.99862 32.5005 11.1158 32.5005 12.4986C32.5005 13.8814 31.3833 14.9986 30.0005 14.9986Z" fill="#1BE4C9"/>
</g>
<path d="M29.5615 31.964V41H27.5455V28.22H29.2015L36.4375 37.454V28.238H38.4715V41H36.7075L29.5615 31.964ZM45.2001 41.18C44.2281 41.18 43.3761 40.958 42.6441 40.514C41.9121 40.07 41.3421 39.482 40.9341 38.75C40.5261 38.006 40.3221 37.196 40.3221 36.32C40.3221 35.432 40.5261 34.616 40.9341 33.872C41.3421 33.128 41.9121 32.534 42.6441 32.09C43.3761 31.646 44.2341 31.424 45.2181 31.424C46.2021 31.424 47.0541 31.652 47.7741 32.108C48.4941 32.552 49.0461 33.14 49.4301 33.872C49.8261 34.604 50.0241 35.39 50.0241 36.23C50.0241 36.53 50.0061 36.77 49.9701 36.95H42.4281C42.4641 37.502 42.6141 37.988 42.8781 38.408C43.1541 38.816 43.4961 39.14 43.9041 39.38C44.3241 39.608 44.7801 39.722 45.2721 39.722C45.8001 39.722 46.2981 39.59 46.7661 39.326C47.2341 39.062 47.5581 38.714 47.7381 38.282L49.4301 38.768C49.1061 39.476 48.5661 40.058 47.8101 40.514C47.0661 40.958 46.1961 41.18 45.2001 41.18ZM42.3741 35.636H48.0621C48.0141 35.096 47.8581 34.622 47.5941 34.214C47.3301 33.794 46.9881 33.47 46.5681 33.242C46.1601 33.002 45.7041 32.882 45.2001 32.882C44.7081 32.882 44.2521 33.002 43.8321 33.242C43.4241 33.47 43.0881 33.794 42.8241 34.214C42.5601 34.622 42.4101 35.096 42.3741 35.636ZM63.1115 31.586H65.0015L61.0415 41H59.3495L57.6575 36.752L55.9655 41H54.2735L50.2955 31.586H52.1855L55.2095 39.074L56.5415 35.6L54.9215 31.604H56.5955L57.6575 34.538L58.7015 31.604H60.3755L58.7735 35.6L60.1055 39.074L63.1115 31.586ZM71.7713 41.09C70.9193 41.09 70.1273 40.916 69.3953 40.568C68.6753 40.22 68.0393 39.74 67.4873 39.128C66.9473 38.516 66.5213 37.82 66.2093 37.04C65.9093 36.26 65.7593 35.432 65.7593 34.556C65.7593 33.692 65.9093 32.876 66.2093 32.108C66.5093 31.328 66.9353 30.644 67.4873 30.056C68.0393 29.456 68.6813 28.988 69.4133 28.652C70.1573 28.304 70.9673 28.13 71.8433 28.13C73.0553 28.13 74.0753 28.388 74.9033 28.904C75.7313 29.408 76.3613 30.08 76.7933 30.92L75.2453 32.036C74.8973 31.34 74.4173 30.818 73.8053 30.47C73.1933 30.122 72.5213 29.948 71.7893 29.948C70.9853 29.948 70.2833 30.17 69.6833 30.614C69.0833 31.046 68.6213 31.616 68.2973 32.324C67.9733 33.032 67.8113 33.794 67.8113 34.61C67.8113 35.474 67.9913 36.26 68.3513 36.968C68.7113 37.664 69.1973 38.222 69.8093 38.642C70.4333 39.062 71.1413 39.272 71.9333 39.272C73.2533 39.272 74.4413 38.642 75.4973 37.382V36.032H72.8153V34.538H77.1893V41H75.4973V39.416C74.4293 40.532 73.1873 41.09 71.7713 41.09ZM88.2548 39.218V41H79.4888V28.22H88.0928V30.002H81.5048V33.638H87.2108V35.312H81.5048V39.218H88.2548Z" fill="white"/>
<defs>
<clipPath id="clip0">
<rect width="40" height="40" fill="white"/>
</clipPath>
</defs>
</svg>
